<?xml version="1.0" encoding="UTF-8"?>
<svg width="173px" height="57px" viewBox="0 0 173 57" version="1.1" xmlns="http://www.w3.org/2000/svg" xmlns:xlink="http://www.w3.org/1999/xlink">
    <!-- Generator: Sketch 49.3 (51167) - http://www.bohemiancoding.com/sketch -->
    <title>Group 10 Copy 6</title>
    <desc>Created with Sketch.</desc>
    <defs></defs>
    <g id="Symbols" stroke="none" stroke-width="1" fill="none" fill-rule="evenodd">
        <g id="logo" transform="translate(-1.000000, 0.000000)">
            <g id="Group-10-Copy-6" transform="translate(1.000000, 0.000000)">
                <path d="M73.3216731,36.128275 C74.765368,35.3059991 76.4752523,34.6555156 78.3725318,34.2815698 C80.2674786,33.9061059 82.3194952,33.7062296 84.4565266,33.7214101 L84.8580137,33.7229281 L85.0480009,33.7239402 L85.254317,33.7292533 L85.667727,33.7398797 L86.0635119,33.7591083 C86.5891517,33.780867 87.1350083,33.8264084 87.674126,33.8810581 C88.7565084,33.9976948 89.8477033,34.1745474 90.9420085,34.4030136 C93.1326924,34.8528618 95.3295969,35.5162487 97.5316853,36.2142978 C99.7314409,36.9224671 101.943638,37.6597324 104.155316,38.3203362 C106.367513,38.977904 108.58282,39.5459069 110.758989,39.9585629 C112.935158,40.372737 115.069857,40.6224559 117.096991,40.7421286 C119.124644,40.8698977 121.046806,40.8198021 122.808269,40.7115147 C124.571806,40.6009502 126.174385,40.3772911 127.584126,40.1483189 C128.708757,39.9659001 129.705088,39.7516024 130.568453,39.5545092 C131.762806,39.3930901 132.96338,39.202069 134.172248,38.9761329 C135.10404,39.7321208 137.072597,41.0938097 138.482597,41.2337232 C140.425494,41.4257562 141.957833,41.1631339 144,39.73794 C141.500879,39.8272518 140.171228,37.4666873 137.627785,37.4186158 C139.770259,35.9220735 138.988279,33.4696672 140.665765,31.7618633 C138.502814,32.0118352 137.423801,32.6036208 136.143656,33.7580963 C135.220158,34.5907455 134.381933,36.665411 133.942345,37.7596705 C128.82954,38.9736028 123.828964,39.5719667 118.787436,39.579557 C118.267499,39.5403407 117.740822,39.4958113 117.206111,39.4434387 C115.369482,39.2605139 113.455355,38.947037 111.500276,38.5207185 C117.029083,37.8031879 122.1958,36.3033566 127.423946,33.8982627 C128.305974,34.2995333 130.119016,34.9657034 131.244424,34.7928989 C132.793091,34.5545654 133.929386,34.0452603 135.216529,32.5310075 C133.351389,33.2854773 132.125933,31.3537614 129.782586,31.9996908 C131.436744,30.2167435 129.908812,28.3882548 130.956981,27 C129.32926,27.6256887 128.615189,28.300208 127.862757,29.4521534 C127.319751,30.2830316 127.103586,32.0624367 126.991097,32.9995783 C121.774615,35.7118239 116.577054,37.4558079 110.939905,38.3952266 C108.889184,37.9296919 106.798807,37.3386652 104.687695,36.666423 C102.522412,35.9843135 100.33743,35.2106151 98.1125327,34.4918194 C95.8902275,33.7682166 93.6230822,33.0911672 91.3199092,32.6299337 C90.1706555,32.3936242 89.0102566,32.2220848 87.857115,32.1105083 C87.2773043,32.0596537 86.708898,31.9981727 86.1257178,31.9812212 L85.6915726,31.9371978 L85.0715873,31.9371978 L84.8499788,31.976667 L84.4303483,32.0184134 C83.3145302,32.0525694 82.2153004,32.1264478 81.1430264,32.2640841 C80.0710117,32.3981783 79.0246568,32.5833802 78.0231421,32.8449904 C76.0224453,33.3611267 74.1780408,34.131283 72.6822484,35.1569774 C71.1828274,36.1738165 70.0180222,37.3864838 69.2352648,38.5961149 C68.4366968,39.7986619 67.9548603,40.9521253 67.6541986,41.9170977 C67.3460202,42.8815642 67.200614,43.6580457 67.1132665,44.1878444 C67.0666121,44.4514787 67.0469136,44.6554031 67.0269559,44.7922804 C67.0093309,44.9296638 67,45 67,45 C67,45 67.0806085,44.7264984 67.2319761,44.2131452 C67.3898235,43.7048521 67.6433125,42.9622737 68.0458364,42.0608063 C68.2461912,41.60944 68.4999394,41.1251827 68.799046,40.6161307 C69.094524,40.1037895 69.4594652,39.5785449 69.883502,39.0497582 C70.7354634,37.99598 71.877719,36.9556112 73.3216731,36.128275 Z M148.834807,8 C148.834807,8 149.585603,7.91607614 150.629603,7.01653467 C152.451317,5.4469918 152.088576,4.15506461 151.617206,2.24287898 C151.392576,1.33249965 151.307979,0 151.307979,0 C151.307979,0 150.418432,1.39419202 149.997371,1.89301098 C148.690928,3.44254551 147.668077,4.18174239 148.100674,6.29873558 C148.348696,7.51146311 148.834807,8 148.834807,8 Z M145.562821,8 C144.344146,9.51510584 144.0483,10.5460026 144.001247,12.0413784 C143.9539,13.5367541 145.270209,16 145.270209,16 C148.902999,12.5198328 145.708685,11.4091937 145.562821,8 Z M147.08725,10 C149.117735,7.28638918 147.185404,6.46363118 146.776729,4 C146.080149,5.2191089 145.950784,6.02134072 146.014336,7.1461269 C146.077661,8.27091309 147.08725,10 147.08725,10 Z M143.093144,12 C141.674867,13.3852585 141.252826,14.3881845 141.030937,15.8851888 C140.808143,17.3821931 141.861737,20 141.861737,20 C145.971661,16.8808694 142.847406,15.4365334 143.093144,12 Z M138,20 C136.402163,20.9782576 135.799415,21.805356 135.272402,23.1178235 C134.745105,24.4300319 135.145703,27 135.145703,27 C139.598691,24.9402919 137.038508,23.0602637 138,20 Z M141.625713,16 C140.048498,17.0970336 139.510894,17.9496426 139.115068,19.2608292 C138.719852,20.5720157 139.469516,23 139.469516,23 C143.944682,20.5952823 140.984969,19.0329164 141.625713,16 Z M135,23 C133.144582,23.8521006 132.385717,24.6514716 131.644853,25.9653646 C130.9043,27.2789858 131.004551,30 131.004551,30 C136.09438,28.309117 133.566691,26.0928399 135,23 Z M144,25 C140.810176,26.917727 138.763489,24.3057147 136,28.6204454 C136,28.6204454 138.779983,29.4017875 140.35281,28.7223731 C141.926195,28.0426489 143.000839,27.1435788 144,25 Z M148,11 C148,11 150.353734,10.5704314 151.341662,9.61288968 C152.329871,8.65508555 152.873386,7.72719639 153,6 C151.006457,8.15860187 148.658899,7.33593996 148,11 Z M132,31.3397233 C132,31.3397233 134.590533,32.322182 136.160528,31.8902626 C137.730523,31.4583433 138.844792,30.7801228 140,29 C136.762777,30.348478 135.05434,27.830001 132,31.3397233 Z M146,17 C146,17 148.615986,16.7523773 149.804468,15.6043346 C150.99244,14.4560023 151.691922,13.280446 152,11 C149.761403,13.8202925 147.272573,12.2404306 146,17 Z M139,23.9038231 C139,23.9038231 141.612922,24.2810245 142.99185,23.5414139 C144.370521,22.8018033 145.274816,21.927478 146,20 C143.257048,21.9612887 141.143686,19.9643402 139,23.9038231 Z M143,19.9980944 C143,19.9980944 145.412538,20.0823651 146.597558,19.1301063 C147.782108,18.1778476 148.522423,17.1390709 149,15 C146.698756,17.4196923 144.577131,15.5733216 143,19.9980944 Z M129.706294,48.854034 C132.099484,48.338413 131.952694,45.9440175 133.622493,45.4039535 C131.9375,44.9789007 130.960189,45.1224718 129.668953,45.63835 C128.737739,46.0106572 127.507279,47.3550282 126.860631,48.0651648 C121.713973,47.3794713 117.028286,46.0718936 112.480634,44.0603543 C113.145823,44.1534955 113.804833,44.234801 114.454828,44.3006687 C115.658505,44.4228842 116.833597,44.5031606 117.970574,44.5432987 C119.108067,44.5803493 120.206673,44.5638824 121.259182,44.5332642 C122.312464,44.4933833 123.31939,44.4331761 124.273267,44.3397777 C125.227401,44.2476657 126.128485,44.1293096 126.97214,44.0070941 C128.660223,43.7611192 130.113185,43.4505631 131.301668,43.1755138 C131.895781,43.0358021 132.425512,42.9094698 132.882106,42.7805646 C133.339987,42.6580918 133.728851,42.5538869 134.040973,42.4594593 C134.666246,42.2736917 135,42.1746328 135,42.1746328 C135,42.1746328 134.657233,42.2366411 134.01522,42.3537107 C133.69563,42.4167482 133.298525,42.4823587 132.833176,42.5580037 C132.368599,42.6372508 131.832687,42.7180417 131.232394,42.8068088 C130.031292,42.9781678 128.569832,43.1572458 126.890762,43.2915542 C126.051484,43.3527907 125.157869,43.4073374 124.215066,43.4317805 C123.273551,43.4644571 122.283621,43.4734624 121.251456,43.4544225 C120.220322,43.4274065 119.147211,43.3846953 118.040106,43.2869229 C116.933259,43.1989277 115.792676,43.0785132 114.625826,42.9117855 C113.45846,42.7466016 112.266114,42.5320168 111.055227,42.276522 C109.843824,42.0233428 108.611047,41.7374871 107.365908,41.40609 C107.293029,41.3867928 107.219891,41.3656945 107.147269,41.3463973 C107.072071,41.3029143 106.996874,41.2622616 106.921933,41.2185213 C106.98374,41.2584021 107.045804,41.2959673 107.107867,41.3355909 C104.701286,40.686948 102.235217,39.8944767 99.738244,39.0739601 C97.1258996,38.2158783 94.421876,37.4041098 91.6503805,36.8411464 C88.878885,36.2866737 86.0406903,35.9323773 83.2084187,36.0108526 C81.7940855,36.0548502 80.3838728,36.2228644 79.0140917,36.5467999 C77.6445681,36.8655895 76.3159912,37.3567673 75.1053611,38.0368004 C73.8867478,38.7037113 72.8241953,39.6068199 71.9450013,40.6077009 C71.5113274,41.114831 71.1232357,41.6482054 70.7794384,42.1972748 C70.4480023,42.7525194 70.1441216,43.3131671 69.8992143,43.8884807 C69.7681335,44.1725354 69.6661532,44.4648235 69.5515541,44.7493927 C69.456527,45.0429673 69.3542891,45.3223907 69.2693055,45.6211112 C69.0934152,46.249685 69.0189902,46.8574179 69.0025085,47.461806 C68.9739231,48.6659507 69.1915327,49.808859 69.5585073,50.8416447 C70.2929716,52.9169933 71.6838699,54.5001349 73.1540862,55.4513578 C73.888293,55.9353314 74.6438744,56.2680149 75.3587668,56.4977802 C76.0757193,56.7262589 76.7530129,56.8549069 77.3661824,56.924634 C78.5945818,57.0651176 79.5608195,56.9778943 80.2095277,56.9140849 C80.5345256,56.8778062 80.7820081,56.8407556 80.9486275,56.812453 C81.1147318,56.7849224 81.200488,56.7707711 81.200488,56.7707711 C81.200488,56.7707711 81.1139592,56.7764316 80.9455372,56.787238 C80.7776302,56.8001028 80.528345,56.8098801 80.2030895,56.8183708 C79.555154,56.8296919 78.5958694,56.8206865 77.4164,56.595038 C76.2431113,56.3771084 74.8372765,55.8987953 73.5249237,54.9215856 C72.8708075,54.4352963 72.252745,53.8183008 71.728937,53.0785751 C71.206159,52.3388495 70.7784083,51.4779374 70.4907516,50.5331469 C70.2048977,49.5904148 70.0637734,48.5568572 70.1394861,47.5158381 C70.1773424,46.999188 70.2731421,46.4694157 70.4338384,45.9880151 C70.5190795,45.732263 70.6352238,45.468792 70.7343713,45.2071221 C70.8507731,44.9511127 70.9545561,44.6863552 71.0843492,44.4336907 C71.3279689,43.9188416 71.6230937,43.42612 71.9380481,42.9418891 C72.2648487,42.4653771 72.6271879,42.008677 73.0253231,41.5784782 C73.8318948,40.7273434 74.7909218,39.9979096 75.8689259,39.4313441 C78.0257067,38.2820033 80.6197667,37.8240167 83.2527132,37.7885098 C85.8962182,37.7352496 88.6084827,38.0908325 91.2779978,38.6483927 C93.9534361,39.2038945 96.5956535,39.9467077 99.184563,40.7821475 C99.8301808,40.986955 100.486615,41.2033408 101.142019,41.4030024 C101.791757,41.6042078 102.442525,41.793063 103.092006,41.9778014 C104.390195,42.3477929 105.68143,42.6951424 106.963138,43.0008099 C108.244587,43.3059628 109.513161,43.5789537 110.76551,43.794825 C111.035397,43.8406237 111.303482,43.8838494 111.571309,43.925274 C116.307986,46.3891394 121.21875,48.0541011 126.676243,49.0583269 C127.150348,49.9001991 128.219854,51.5003222 129.230644,52.0084816 C130.622314,52.7080691 131.840928,52.9447813 133.778554,52.438423 C131.825476,51.982752 131.981022,49.6768662 129.706294,48.854034 Z M160.445857,39.2216062 C159.947368,40.2446025 160.001744,40.8374026 160.001744,40.8374026 C160.001744,40.8374026 160.542641,41.1234319 161.721999,40.9367575 C163.780736,40.6102693 164.246704,39.4743465 164.979087,37.8229564 C165.327717,37.0368241 166,36 166,36 C166,36 164.651531,36.6281377 164.101528,36.8058497 C162.394022,37.3574227 161.31509,37.4347555 160.445857,39.2216062 Z M156,39 C154.1514,39.5382887 153.306614,40.1787381 152.378246,41.3038029 C151.449318,42.4296456 151,45 151,45 C155.891176,44.188159 154.079598,41.6979257 156,39 Z M160,37 C158.360412,37.6523373 157.639285,38.3280964 156.89512,39.4563855 C156.150955,40.5855422 156,43 156,43 C160.173083,41.901494 158.663231,39.6735422 160,37 Z M152,41 C150.324355,41.3725836 149.519078,41.9759916 148.588857,43.1034795 C147.658636,44.2306811 147,47 147,47 C151.385256,46.6672235 150.043294,43.7352394 152,41 Z M142,44.0048763 C140.302223,43.9552266 139.402588,44.2841256 138.28313,45.0189414 C137.164175,45.7537571 136,47.9027419 136,47.9027419 C140.351966,48.5462506 139.585228,45.8545097 142,44.0048763 Z M148,43 C146.159199,43.1445512 145.229828,43.6119959 144.111811,44.5509081 C142.99325,45.4898203 142,47.9898316 142,47.9898316 C146.76999,48.1928469 145.615277,45.3152325 148,43 Z M134.433158,45.7880552 C133.313368,46.4729364 132,48.7219093 132,48.7219093 C135.991208,49.9397763 135.554832,46.8686216 138,45.0947953 C136.426172,44.8418163 135.554125,45.1026333 134.433158,45.7880552 Z M137,49.3913 C137,49.3913 138.759154,51.3877378 140.31584,51.7687141 C141.872527,52.1496904 143.153846,52.1201889 145,51.2206474 C141.573215,50.8066091 141.297316,47.9805687 137,49.3913 Z M156,43.3176373 C156,43.3176373 157.822191,44.1861139 158.991321,43.9635027 C160.161623,43.7406474 161.014309,43.3142201 162,42.0727721 C159.522402,42.6961811 158.356087,40.879166 156,43.3176373 Z M132,49.2354475 C132,49.2354475 133.575258,51.831627 135.129347,52.4779281 C136.684536,53.1245341 138.003024,53.2476972 140,52.4041523 C136.528935,51.483478 136.580344,48.0836901 132,49.2354475 Z M152,45.5025424 C152,45.5025424 154.26594,47.1456297 155.829798,46.9895442 C157.392887,46.8334586 158.571483,46.3056227 160,44.5390324 C156.715668,45.404795 155.495546,42.262604 152,45.5025424 Z M142,48.6927597 C142,48.6927597 143.933134,50.6709917 145.491869,50.908815 C147.051125,51.1469174 148.296605,50.96855 150,49.7732925 C146.617146,49.7202568 146.026278,46.6681911 142,48.6927597 Z M147,47.0723181 C147,47.0723181 149.100151,48.9386974 150.660939,48.9943745 C152.222754,49.0506502 153.434073,48.7010221 155,47.2040273 C151.663605,47.58778 150.759612,44.4117921 147,47.0723181 Z M170.272096,13.3787219 C172.505687,12.1373952 172.533365,10.6593181 172.638125,8.48761674 C172.688306,7.45326054 173,6 173,6 C173,6 171.723736,7.28053695 171.167343,7.71408309 C169.44074,9.05988772 168.228109,9.60386775 168.024796,11.9867584 C167.908655,13.3516718 168.238197,13.995911 168.238197,13.995911 C168.238197,13.995911 168.992212,14.0897177 170.272096,13.3787219 Z M163.846132,13 C161.645446,14.3807802 160.861724,15.4683544 160.234355,17.1531904 C159.607313,18.837768 160.437059,22 160.437059,22 C166.681369,18.9297339 162.531661,16.9287006 163.846132,13 Z M167.461688,10 C165.90731,11.341378 165.399662,12.3478116 165.070925,13.8494616 C164.742188,15.350845 165.662887,18 165.662887,18 C169.959974,15.0164339 166.906155,13.448915 167.461688,10 Z M160,18 C157.975638,19.0810746 157.186551,20.0169481 156.462125,21.5158363 C155.738258,23.0149648 156.081157,26 156.081157,26 C161.743605,23.6830338 158.439181,21.5067011 160,18 Z M147.534992,29.1217317 C146.420195,30.6243736 146,34 146,34 C152.323003,32.6315323 149.533537,29.5460712 152,26 C149.685145,26.7543208 148.65008,27.6190898 147.534992,29.1217317 Z M151,30 C155.849244,28.1281521 153.377378,25.5266957 155,22 C153.244957,22.9257481 152.508592,23.8275829 151.766481,25.3282666 C151.025289,26.8289503 151,30 151,30 Z M145,29 C142.923662,29.4888798 141.940147,30.2085546 140.822977,31.5249694 C139.706315,32.8408644 139,36 139,36 C144.61476,35.3133331 142.512808,32.1253481 145,29 Z M150.886158,35.9751022 C152.843608,35.7137065 154.298006,35.0208099 156,32.8295283 C154.515733,33.3708823 153.80622,32.4190243 152.451385,32.1561071 C149.852281,31.6515737 148.159195,32.36638 146,34.3534747 C146,34.3534747 148.929232,36.236498 150.886158,35.9751022 Z M166,17.9863385 C166,17.9863385 168.703909,18.1439122 170.077771,17.3887563 C171.451634,16.6331397 172.331283,15.7929769 173,14 C170.263484,15.9360373 167.968193,14.2559421 166,17.9863385 Z M150,36.5115348 C148.487535,36.8621842 147.876102,35.8248718 146.566148,35.392201 C144.049185,34.5616193 142.313152,35.0635053 140,36.7719301 C140,36.7719301 142.717394,39.0148664 144.671277,38.9999257 C146.625679,38.9852899 148.123067,38.4782204 150,36.5115348 Z M167.478048,18.6727276 C164.896125,19.1492887 163.492912,20.3600338 162,22.7990829 C162,22.7990829 165.256465,23.408708 167.026978,22.5041473 C168.798264,21.5995866 169.981614,20.4963901 171,18 C169.75943,18.990435 168.825329,18.4238842 167.478048,18.6727276 Z M161,29.226795 C159.546847,29.9353723 158.735567,29.1049114 157.33577,29.0190322 C154.652492,28.8543566 153.001654,29.7526945 151,31.9333182 C151,31.9333182 154.146409,33.3914941 156.106712,32.8980575 C158.067015,32.4046209 159.476683,31.5561579 161,29.226795 Z M166,24 C164.798797,26.2238197 163.5704,27.124614 161.803082,27.7726956 C160.035763,28.4205164 157,27.4777337 157,27.4777337 C158.653107,25.3457147 160.098061,24.3718971 162.593666,24.2221994 C163.895731,24.1436994 164.723397,24.7850003 166,24 Z" id="Fill-90" fill="#895C25"></path>
                <path d="M5.05,21.656 L5.996,21.656 C7.08133876,21.656 7.85866432,21.5166681 8.328,21.238 C8.79733568,20.9593319 9.032,20.5120031 9.032,19.896 C9.032,19.2799969 8.79733568,18.8326681 8.328,18.554 C7.85866432,18.2753319 7.08133876,18.136 5.996,18.136 L5.05,18.136 L5.05,21.656 Z M5.05,14.924 L5.842,14.924 C7.19134008,14.924 7.866,14.388672 7.866,13.318 C7.866,12.247328 7.19134008,11.712 5.842,11.712 L5.05,11.712 L5.05,14.924 Z M0.738,8.412 L7.162,8.412 C8.68734096,8.412 9.84599604,8.778663 10.638,9.512 C11.430004,10.245337 11.826,11.3013264 11.826,12.68 C11.826,13.5160042 11.6756682,14.2089973 11.375,14.759 C11.0743318,15.3090028 10.6160031,15.7746648 10,16.156 C10.6160031,16.2733339 11.1403312,16.4529988 11.573,16.695 C12.0056688,16.9370012 12.3576653,17.2339982 12.629,17.586 C12.9003347,17.9380018 13.0946661,18.3339978 13.212,18.774 C13.3293339,19.2140022 13.388,19.6833308 13.388,20.182 C13.388,20.9593372 13.2523347,21.6486637 12.981,22.25 C12.7096653,22.8513363 12.3283358,23.3573313 11.837,23.768 C11.3456642,24.1786687 10.7480035,24.4866656 10.044,24.692 C9.33999648,24.8973344 8.5480044,25 7.668,25 L0.738,25 L0.738,8.412 Z M15.1887032,13.714 L19.1707032,13.714 L19.1707032,15.562 C19.5960386,14.88733 20.1167001,14.3703351 20.7327032,14.011 C21.3487062,13.6516649 22.0673657,13.472 22.8887032,13.472 L23.2297032,13.472 C23.3543704,13.472 23.497369,13.4866665 23.6587032,13.516 L23.6587032,17.322 C23.1307005,17.0579987 22.5587062,16.926 21.9427032,16.926 C21.0186985,16.926 20.3257055,17.2009973 19.8637032,17.751 C19.4017008,18.3010028 19.1707032,19.1039947 19.1707032,20.16 L19.1707032,25 L15.1887032,25 L15.1887032,13.714 Z M33.4234063,17.718 C33.2914056,17.1606639 33.020075,16.713335 32.6094063,16.376 C32.1987376,16.038665 31.7000759,15.87 31.1134063,15.87 C30.4974032,15.87 29.9950749,16.0313317 29.6064063,16.354 C29.2177377,16.6766683 28.9720735,17.1313304 28.8694063,17.718 L33.4234063,17.718 Z M28.7594063,20.028 C28.7594063,21.7440086 29.5660649,22.602 31.1794063,22.602 C32.044744,22.602 32.6974041,22.2500035 33.1374063,21.546 L36.9874063,21.546 C36.2100691,24.1273462 34.2667552,25.418 31.1574063,25.418 C30.2040682,25.418 29.3314103,25.2750014 28.5394063,24.989 C27.7474023,24.7029986 27.0690758,24.2960026 26.5044063,23.768 C25.9397368,23.2399974 25.5034078,22.609337 25.1954063,21.876 C24.8874048,21.142663 24.7334063,20.3213379 24.7334063,19.412 C24.7334063,18.4733286 24.8800715,17.6263371 25.1734063,16.871 C25.4667411,16.1156629 25.8847369,15.4740026 26.4274063,14.946 C26.9700757,14.4179974 27.6264025,14.0110014 28.3964063,13.725 C29.1664102,13.4389986 30.0354015,13.296 31.0034063,13.296 C31.9567444,13.296 32.8147358,13.4389986 33.5774063,13.725 C34.3400768,14.0110014 34.9854037,14.4253306 35.5134063,14.968 C36.0414089,15.5106694 36.4447382,16.1743294 36.7234063,16.959 C37.0020744,17.7436706 37.1414063,18.6273284 37.1414063,19.61 L37.1414063,20.028 L28.7594063,20.028 Z M42.7041095,19.324 C42.7041095,19.6906685 42.7701088,20.0316651 42.9021095,20.347 C43.0341101,20.6623349 43.213775,20.9373322 43.4411095,21.172 C43.6684439,21.4066678 43.9397745,21.5899993 44.2551095,21.722 C44.5704444,21.8540007 44.911441,21.92 45.2781095,21.92 C45.6301112,21.92 45.9637745,21.8540007 46.2791095,21.722 C46.5944444,21.5899993 46.865775,21.4066678 47.0931095,21.172 C47.3204439,20.9373322 47.5037754,20.6660015 47.6431095,20.358 C47.7824435,20.0499985 47.8521095,19.7200018 47.8521095,19.368 C47.8521095,19.0159982 47.7824435,18.6823349 47.6431095,18.367 C47.5037754,18.0516651 47.3204439,17.7766678 47.0931095,17.542 C46.865775,17.3073322 46.5944444,17.1240007 46.2791095,16.992 C45.9637745,16.8599993 45.6301112,16.794 45.2781095,16.794 C44.911441,16.794 44.5704444,16.8599993 44.2551095,16.992 C43.9397745,17.1240007 43.6684439,17.3073322 43.4411095,17.542 C43.213775,17.7766678 43.0341101,18.0443318 42.9021095,18.345 C42.7701088,18.6456682 42.7041095,18.9719982 42.7041095,19.324 Z M47.7201095,13.714 L51.7241095,13.714 L51.7241095,25 L47.7201095,25 L47.7201095,23.746 C46.8694385,24.816672 45.7181167,25.352 44.2661095,25.352 C43.444772,25.352 42.6894462,25.2016682 42.0001095,24.901 C41.3107727,24.6003318 40.7094454,24.1786694 40.1961095,23.636 C39.6827736,23.0933306 39.2831109,22.455337 38.9971095,21.722 C38.711108,20.988663 38.5681095,20.1893377 38.5681095,19.324 C38.5681095,18.5173293 38.7074414,17.7510036 38.9861095,17.025 C39.2647775,16.2989964 39.6534403,15.6646694 40.1521095,15.122 C40.6507786,14.5793306 41.2447727,14.1503349 41.9341095,13.835 C42.6234462,13.5196651 43.3861053,13.362 44.2221095,13.362 C45.6301165,13.362 46.7961048,13.8533284 47.7201095,14.836 L47.7201095,13.714 Z M57.7268126,19.324 C57.7268126,19.6906685 57.7928119,20.0316651 57.9248126,20.347 C58.0568133,20.6623349 58.2364781,20.9373322 58.4638126,21.172 C58.6911471,21.4066678 58.9624777,21.5899993 59.2778126,21.722 C59.5931475,21.8540007 59.9341441,21.92 60.3008126,21.92 C60.6528144,21.92 60.9864777,21.8540007 61.3018126,21.722 C61.6171475,21.5899993 61.8884781,21.4066678 62.1158126,21.172 C62.3431471,20.9373322 62.5264786,20.6660015 62.6658126,20.358 C62.8051466,20.0499985 62.8748126,19.7200018 62.8748126,19.368 C62.8748126,19.0159982 62.8051466,18.6823349 62.6658126,18.367 C62.5264786,18.0516651 62.3431471,17.7766678 62.1158126,17.542 C61.8884781,17.3073322 61.6171475,17.1240007 61.3018126,16.992 C60.9864777,16.8599993 60.6528144,16.794 60.3008126,16.794 C59.9488108,16.794 59.6151475,16.8599993 59.2998126,16.992 C58.9844777,17.1240007 58.7131471,17.3073322 58.4858126,17.542 C58.2584781,17.7766678 58.0751466,18.0443318 57.9358126,18.345 C57.7964786,18.6456682 57.7268126,18.9719982 57.7268126,19.324 Z M62.7428126,6.74 L66.7468126,6.74 L66.7468126,25 L62.7428126,25 L62.7428126,23.746 C61.8921417,24.816672 60.7408199,25.352 59.2888126,25.352 C58.4674752,25.352 57.7121494,25.1980015 57.0228126,24.89 C56.3334758,24.5819985 55.7321485,24.1566694 55.2188126,23.614 C54.7054767,23.0713306 54.305814,22.433337 54.0198126,21.7 C53.7338112,20.966663 53.5908126,20.1746709 53.5908126,19.324 C53.5908126,18.5173293 53.7264779,17.7510036 53.9978126,17.025 C54.2691473,16.2989964 54.6541434,15.6646694 55.1528126,15.122 C55.6514818,14.5793306 56.2491425,14.1503349 56.9458126,13.835 C57.6424828,13.5196651 58.4088084,13.362 59.2448126,13.362 C60.6528196,13.362 61.818808,13.8533284 62.7428126,14.836 L62.7428126,6.74 Z" id="Bread" fill="#895C25"></path>
                <path d="M71.444,13.714 L74.15,19.654 L76.966,13.714 L79.474,13.714 L82.29,19.83 L85.128,13.714 L89.55,13.714 L83.654,25 L80.992,25 L78.176,18.818 L75.492,25 L72.786,25 L67,13.714 L71.444,13.714 Z M93.6607032,19.324 C93.6607032,19.6906685 93.7267025,20.0316651 93.8587032,20.347 C93.9907039,20.6623349 94.1703687,20.9373322 94.3977032,21.172 C94.6250377,21.4066678 94.8963683,21.5899993 95.2117032,21.722 C95.5270381,21.8540007 95.8680347,21.92 96.2347032,21.92 C96.586705,21.92 96.9203683,21.8540007 97.2357032,21.722 C97.5510381,21.5899993 97.8223687,21.4066678 98.0497032,21.172 C98.2770377,20.9373322 98.4603692,20.6660015 98.5997032,20.358 C98.7390372,20.0499985 98.8087032,19.7200018 98.8087032,19.368 C98.8087032,19.0159982 98.7390372,18.6823349 98.5997032,18.367 C98.4603692,18.0516651 98.2770377,17.7766678 98.0497032,17.542 C97.8223687,17.3073322 97.5510381,17.1240007 97.2357032,16.992 C96.9203683,16.8599993 96.586705,16.794 96.2347032,16.794 C95.8680347,16.794 95.5270381,16.8599993 95.2117032,16.992 C94.8963683,17.1240007 94.6250377,17.3073322 94.3977032,17.542 C94.1703687,17.7766678 93.9907039,18.0443318 93.8587032,18.345 C93.7267025,18.6456682 93.6607032,18.9719982 93.6607032,19.324 Z M98.6767032,13.714 L102.680703,13.714 L102.680703,25 L98.6767032,25 L98.6767032,23.746 C97.8260323,24.816672 96.6747105,25.352 95.2227032,25.352 C94.4013658,25.352 93.64604,25.2016682 92.9567032,24.901 C92.2673664,24.6003318 91.6660391,24.1786694 91.1527032,23.636 C90.6393673,23.0933306 90.2397046,22.455337 89.9537032,21.722 C89.6677018,20.988663 89.5247032,20.1893377 89.5247032,19.324 C89.5247032,18.5173293 89.6640351,17.7510036 89.9427032,17.025 C90.2213713,16.2989964 90.610034,15.6646694 91.1087032,15.122 C91.6073724,14.5793306 92.2013664,14.1503349 92.8907032,13.835 C93.58004,13.5196651 94.342699,13.362 95.1787032,13.362 C96.5867102,13.362 97.7526986,13.8533284 98.6767032,14.836 L98.6767032,13.714 Z M109.299406,23.46 L103.843406,13.714 L108.463406,13.714 L111.477406,19.5 L114.403406,13.714 L118.979406,13.714 L109.915406,30.632 L105.449406,30.632 L109.299406,23.46 Z" id="way" fill="#3CA3A6"></path>
            </g>
        </g>
    </g>
</svg>